<?xml version="1.0"?>
<svg xmlns="http://www.w3.org/2000/svg" xmlns:xlink="http://www.w3.org/1999/xlink" xmlns:svgjs="http://svgjs.com/svgjs" version="1.1" width="512" height="512" x="0" y="0" viewBox="0 0 512 512" style="enable-background:new 0 0 512 512" xml:space="preserve" class=""><g><g xmlns="http://www.w3.org/2000/svg"><path d="m442.319 256c3.192-3.898 6.971-7.749 9.853-11.66 33.076-44.941 41.836-86.074 24.639-115.84-17.168-29.766-57.393-42.817-112.617-36.563-4.719.526-9.825 1.848-14.68 2.637-21.826-57.4-55.3-94.574-93.514-94.574s-71.688 37.174-93.514 94.574c-4.854-.789-9.961-2.111-14.68-2.637-55.165-6.166-95.449 6.812-112.617 36.563-17.197 29.766-8.438 70.898 24.639 115.84 2.882 3.911 6.661 7.762 9.853 11.66-3.192 3.898-6.971 7.749-9.853 11.66-33.076 44.941-41.836 86.074-24.639 115.84 20.966 36.369 70.911 41.234 112.617 36.563 4.719-.526 9.825-1.848 14.68-2.637 21.826 57.4 55.3 94.574 93.514 94.574s71.688-37.174 93.514-94.574c4.854.789 9.961 2.111 14.68 2.637 41.72 4.673 91.673-.23 112.617-36.563 17.197-29.766 8.438-70.898-24.639-115.84-2.882-3.911-6.662-7.762-9.853-11.66zm-74.815-134.238c42.275-4.673 72.627 3.179 83.35 21.738 10.693 18.53 2.373 48.809-22.852 83.042-1.652 2.245-3.907 4.462-5.674 6.705-14.764-15.079-31.897-29.63-50.424-43.627-2.906-23.723-7.322-45.95-13.059-66.293 2.831-.41 5.883-1.256 8.659-1.565zm-66.504 212.182c-14.943 8.628-29.996 16.172-45 23.015-15.004-6.843-30.057-14.387-45-23.015-15-8.661-29.108-17.966-42.581-27.581-1.54-16.022-2.419-32.811-2.419-50.363s.879-34.341 2.421-50.365c13.473-9.615 27.579-18.918 42.579-27.579 14.943-8.628 29.996-16.174 45-23.016 15.004 6.843 30.057 14.388 45 23.016 15 8.661 29.106 17.964 42.579 27.579 1.542 16.024 2.421 32.813 2.421 50.365s-.879 34.341-2.419 50.363c-13.473 9.615-27.581 18.92-42.581 27.581zm37.125 11.906c-2.444 13.264-5.403 25.712-8.765 37.328-11.942-2.968-24.188-6.674-36.634-11.115 7.769-4.016 15.568-7.683 23.275-12.133 7.699-4.445 14.768-9.363 22.124-14.08zm-118.85 26.213c-12.446 4.44-24.692 8.146-36.634 11.115-3.362-11.618-6.321-24.064-8.765-37.328 7.355 4.717 14.425 9.633 22.125 14.081 7.706 4.449 15.504 8.117 23.274 12.132zm-82.684-90.34c-9.869-8.417-19.072-17.016-27.464-25.723 8.392-8.707 17.595-17.305 27.464-25.723-.38 8.451-.591 17.025-.591 25.723s.211 17.272.591 25.723zm37.284-115.573c2.444-13.264 5.405-25.712 8.767-37.33 11.942 2.968 24.186 6.676 36.632 11.116-7.769 4.016-15.568 7.683-23.275 12.133-7.699 4.448-14.768 9.364-22.124 14.081zm118.85-26.213c12.446-4.44 24.69-8.148 36.632-11.116 3.362 11.618 6.323 24.066 8.767 37.33-7.355-4.717-14.425-9.633-22.125-14.081-7.706-4.45-15.504-8.118-23.274-12.133zm82.684 90.34c9.869 8.417 19.072 17.016 27.464 25.723-8.392 8.707-17.595 17.305-27.464 25.723.38-8.451.591-17.025.591-25.723s-.211-17.272-.591-25.723zm-119.409-200.277c22.43 0 46.146 26.844 63.627 70.52-20.641 5.288-42.028 12.936-63.627 22.101-21.599-9.164-42.986-16.813-63.627-22.101 17.481-43.676 41.197-70.52 63.627-70.52zm-194.854 113.5c8.672-15.029 30.264-23.071 60.645-23.071 7.119 0 14.707.439 22.705 1.333 2.776.309 5.828 1.155 8.659 1.566-5.737 20.345-10.153 42.57-13.059 66.293-18.525 13.997-35.66 28.55-50.424 43.629-1.769-2.243-4.023-4.462-5.674-6.707-25.225-34.234-33.545-64.513-22.852-83.043zm83.35 246.738c-42.246 4.717-72.627-3.179-83.35-21.738-10.693-18.53-2.373-48.809 22.852-83.042 1.652-2.245 3.906-4.464 5.674-6.707 14.764 15.079 31.899 29.632 50.424 43.629 2.906 23.723 7.322 45.948 13.059 66.293-2.831.41-5.883 1.256-8.659 1.565zm111.504 91.762c-22.43 0-46.146-26.844-63.627-70.52 20.641-5.288 42.028-12.936 63.627-22.101 21.599 9.164 42.986 16.813 63.627 22.101-17.481 43.676-41.197 70.52-63.627 70.52zm194.854-113.5c-10.693 18.56-41.162 26.455-83.35 21.738-2.776-.309-5.828-1.155-8.659-1.566 5.737-20.343 10.153-42.57 13.059-66.293 18.527-13.997 35.66-28.548 50.424-43.627 1.767 2.243 4.023 4.46 5.674 6.705 25.225 34.234 33.545 64.513 22.852 83.043z" fill="#20a6fc" data-original="#000000" style=""/><circle cx="256" cy="256" r="45" fill="#20a6fc" data-original="#000000" style=""/></g></g></svg>
